<svg xmlns="http://www.w3.org/2000/svg" width="43.18" height="43.178" viewBox="0 0 43.18 43.178">
  <g id="store" opacity="0.9">
    <path id="_7" data-name="7" d="M-96.069,279.421c1.151.009,2.3.027,3.452.028q4.783,0,9.565,0h.516v8.142H-83c-3.82,0-7.641-.008-11.461.01a1.494,1.494,0,0,1-1.606-1.013Z" transform="translate(96.069 -268.795)" fill="#77629d"/>
    <path id="_6" data-name="6" d="M-77.862,178.621c-.447,2.7-.895,5.391-1.345,8.1H-92.591l.634-1.9c.548-1.65,1.106-3.3,1.637-4.95a1.752,1.752,0,0,1,1.073-1.249Z" transform="translate(92.958 -178.621)" fill="#77629d"/>
    <path id="_5" data-name="5" d="M181.716,178.621a1.707,1.707,0,0,1,1.057,1.21c.7,2.159,1.431,4.31,2.149,6.464.043.13.074.264.12.429H171.677q-.671-4.037-1.346-8.1Z" transform="translate(-142.249 -178.621)" fill="#77629d"/>
    <path id="_4" data-name="4" d="M68.012,178.621c.181,1.164.355,2.329.545,3.492.23,1.413.473,2.823.709,4.236.018.11.019.223.03.368H58.783c.11-.689.215-1.36.326-2.03q.478-2.865.96-5.731a2.711,2.711,0,0,0,.016-.336Z" transform="translate(-42.459 -178.621)" fill="#77629d"/>
    <path id="_3" data-name="3" d="M-70.416,381.051h37.769v.406q0,9.929,0,19.857c0,1.128-.458,1.574-1.592,1.574q-17.285,0-34.571,0c-1.158,0-1.6-.443-1.6-1.6q0-9.909,0-19.816Z" transform="translate(73.121 -359.712)" fill="#77629d"/>
    <path id="_2" data-name="2" d="M198.7,279.986v5.473c0,.422,0,.843,0,1.265a1.279,1.279,0,0,1-1.374,1.37c-1.138.011-2.276,0-3.415,0h-8.741v-8.112Z" transform="translate(-155.521 -269.3)" fill="#77629d"/>
    <path id="_1" data-name="1" d="M67.76,288.014H56.815v-8.1H67.76Z" transform="translate(-40.699 -269.24)" fill="#77629d"/>
  </g>
</svg>
