<svg xmlns="http://www.w3.org/2000/svg" width="41.112" height="42.125" viewBox="0 0 41.112 42.125">
  <path id="패스_3714" data-name="패스 3714" d="M444.784,767.376H422.093a1.287,1.287,0,0,0-1.287,1.287v12.584a1.287,1.287,0,1,0,2.574,0v-11.3H443.5v25.36h-6.361V785.286A1.287,1.287,0,0,0,435.849,784H419.99l-3.812-4.16a1.287,1.287,0,0,0-.949-.417h-8.981a1.288,1.288,0,0,0-1.287,1.287v27.5a1.288,1.288,0,0,0,1.287,1.287h29.6a1.287,1.287,0,0,0,1.287-1.287V797.884h7.648a1.287,1.287,0,0,0,1.287-1.287V768.663A1.287,1.287,0,0,0,444.784,767.376ZM414.662,782l3.813,4.159a1.288,1.288,0,0,0,.949.417h15.139v2.383H407.534V782Z" transform="translate(-404.96 -767.376)" fill="#77629d"/>
</svg>
