<svg xmlns="http://www.w3.org/2000/svg" width="36.184" height="36.248" viewBox="0 0 36.184 36.248">
  <g id="profile_icon" data-name="profile icon" transform="translate(-8 0)">
    <g id="Dribbble-Light-Preview" transform="translate(0 0)">
      <g id="icons">
        <path id="profile-_1336_" data-name="profile-[#1336]" d="M342.092,2020.747c6.848,0,12.588,4.012,14.083,10.872H328.009c1.494-6.86,7.235-10.872,14.083-10.872m-7.237-10.872a7.237,7.237,0,1,1,7.237,7.248,7.249,7.249,0,0,1-7.237-7.248m14.036,8.467a10.861,10.861,0,1,0-13.6,0c-6.62,2.491-11.293,8.646-11.293,16.9h36.184c0-8.254-4.673-14.409-11.293-16.9" transform="translate(-316 -1998.995)" fill="#fff" fill-rule="evenodd"/>
      </g>
    </g>
  </g>
</svg>
