<svg xmlns="http://www.w3.org/2000/svg" width="24" height="24.668" viewBox="0 0 24 24.668"><defs><style>.a{fill:none;}.b{fill:#2b3341;}</style></defs><g transform="translate(0.407)"><rect class="a" width="24" height="24" transform="translate(-0.407)"/><g transform="translate(0.748 3.085)"><path class="b" d="M22.209,15.421a1.057,1.057,0,0,0-.088-1.521L12.07,5.181a1.261,1.261,0,0,0-1.634.019L.35,14.364A1.05,1.05,0,0,0,.3,15.883l.253.261a1.11,1.11,0,0,0,1.514.115l.754-.669v9.8a1.092,1.092,0,0,0,1.1,1.088H7.85a1.092,1.092,0,0,0,1.1-1.088V18.533h5.015v6.853a1.032,1.032,0,0,0,1.031,1.087h4.166a1.092,1.092,0,0,0,1.1-1.088V15.728l.465.4c.256.223.795.044,1.2-.4Z" transform="translate(0 -4.89)"/></g></g></svg>