<svg xmlns="http://www.w3.org/2000/svg" width="24" height="24" viewBox="0 0 24 24"><defs><style>.a{fill:none;}.b{fill:#2b3341;}</style></defs><g transform="translate(-0.451)"><rect class="a" width="24" height="24" transform="translate(0.451)"/><path class="b" d="M11.687,16.844A5.156,5.156,0,1,1,16.844,22,5.162,5.162,0,0,1,11.687,16.844ZM2.836,22A2.839,2.839,0,0,1,0,19.164V14.523a2.839,2.839,0,0,1,2.836-2.836H7.477a2.839,2.839,0,0,1,2.836,2.836v4.641A2.839,2.839,0,0,1,7.477,22ZM14.523,10.313a2.839,2.839,0,0,1-2.836-2.836V2.836A2.839,2.839,0,0,1,14.523,0h4.641A2.839,2.839,0,0,1,22,2.836V7.477a2.839,2.839,0,0,1-2.836,2.836Zm-11.688,0A2.839,2.839,0,0,1,0,7.477V2.836A2.839,2.839,0,0,1,2.836,0H7.477a2.839,2.839,0,0,1,2.836,2.836V7.477a2.839,2.839,0,0,1-2.836,2.836Z" transform="translate(1.451 1)"/></g></svg>