<svg id="ic-actions-heart" xmlns="http://www.w3.org/2000/svg" width="41" height="41" viewBox="0 0 41 41">
  <rect id="사각형_41" data-name="사각형 41" width="41" height="41" fill="none"/>
  <g id="Layer" transform="translate(1.986 4.563)">
    <path id="패스_91" data-name="패스 91" d="M11.142,21.2l8.542,8.542h0L28.225,21.2h0l4.852-4.852A6.04,6.04,0,1,0,24.535,7.81L19.684,12.7,14.832,7.844A6.04,6.04,0,1,0,6.29,16.386ZM22.075,5.436A9.434,9.434,0,1,1,35.417,18.778L32.992,21.2h0L19.684,34.546h0L6.342,21.2h0L3.916,18.778A9.434,9.434,0,0,1,17.258,5.436l2.426,2.426Z" transform="translate(-1.152 -2.672)" fill="#ffa49f" stroke="#ffa49f" stroke-width="1" fill-rule="evenodd"/>
  </g>
</svg>
