<svg xmlns="http://www.w3.org/2000/svg" xmlns:xlink="http://www.w3.org/1999/xlink" width="68" height="68" viewBox="0 0 68 68"><defs><style>.a{fill:#fff;}.b{fill:#8569ef;stroke:#8569ef;}.c{filter:url(#a);}</style><filter id="a" x="0" y="0" width="68" height="68" filterUnits="userSpaceOnUse"><feOffset dy="10" input="SourceAlpha"/><feGaussianBlur stdDeviation="5" result="b"/><feFlood flood-color="#616576" flood-opacity="0.051"/><feComposite operator="in" in2="b"/><feComposite in="SourceGraphic"/></filter></defs><g transform="translate(-501 -382)"><g class="c" transform="matrix(1, 0, 0, 1, 501, 382)"><circle class="a" cx="19" cy="19" r="19" transform="translate(15 5)"/></g><g transform="translate(525.915 396.915)"><g transform="translate(0 0)"><path class="b" d="M7.569,0a7.569,7.569,0,1,0,7.569,7.569A7.578,7.578,0,0,0,7.569,0Zm0,13.74A6.172,6.172,0,1,1,13.74,7.569,6.179,6.179,0,0,1,7.569,13.74Z"/></g><g transform="translate(11.784 11.784)"><path class="b" d="M356.244,355.256l-4.006-4.006a.7.7,0,0,0-.988.988l4.006,4.006a.7.7,0,0,0,.988-.988Z" transform="translate(-351.046 -351.046)"/></g></g></g></svg>