<svg xmlns="http://www.w3.org/2000/svg" width="24" height="24" viewBox="0 0 24 24"><defs><style>.a{fill:none;}.b{fill:#2b3341;}</style></defs><rect class="a" width="24" height="24"/><g transform="translate(3.544 1)"><path class="b" d="M1570.969-508.831a8.917,8.917,0,0,1,2.48,2.03,8.787,8.787,0,0,1,2.143,6.023,3.956,3.956,0,0,1-3.972,3.8q-5,.03-10,0a3.935,3.935,0,0,1-3.96-4.069,8.822,8.822,0,0,1,4.434-7.672l.158-.1c.005,0,.007-.013.02-.036a5.933,5.933,0,0,1-1.563-4.983,5.82,5.82,0,0,1,2.137-3.771,6,6,0,0,1,7.921.312A6.024,6.024,0,0,1,1570.969-508.831Z" transform="translate(-1557.655 518.951)"/></g></svg>