<svg xmlns="http://www.w3.org/2000/svg" width="56.374" height="39.352" viewBox="0 0 56.374 39.352">
  <g id="그룹_9204" data-name="그룹 9204" transform="translate(-395.979 -19.062)">
    <path id="패스_3708" data-name="패스 3708" d="M402.468,147.177l2.021-1.579,1.355-1.058,7.251-5.66.01-.006-.259-.4a7.83,7.83,0,0,0-11.516-2.067l-.553.433-2.414,1.883-1.355,1.059-7.036,5.494-4.993,3.9,4.993,3.9,7.036,5.494,1.355,1.058,2.414,1.884.553.433a7.83,7.83,0,0,0,11.516-2.067l.259-.394-.01-.009-7.251-5.66-1.355-1.058-2.021-1.58a2.081,2.081,0,0,1-.237-.185,2.5,2.5,0,0,1,0-3.634A2.165,2.165,0,0,1,402.468,147.177Z" transform="translate(11 -115.667)"/>
    <path id="패스_3709" data-name="패스 3709" d="M447.365,167.6l4.994-3.9-4.994-3.9-7.036-5.494-1.354-1.059-2.414-1.885-.554-.433A7.828,7.828,0,0,0,424.492,153l-.26.394.01.006,7.251,5.661,1.355,1.057,2.023,1.577a2.867,2.867,0,0,1,.236.187,2.5,2.5,0,0,1,0,3.635,2.147,2.147,0,0,1-.236.184l-2.023,1.579-1.355,1.058L424.242,174l-.01.007.26.4a7.829,7.829,0,0,0,11.514,2.066l.554-.435,2.414-1.883,1.354-1.058Z" transform="translate(-0.006 -119.738)"/>
  </g>
</svg>
