<svg id="Layer" xmlns="http://www.w3.org/2000/svg" width="35.75" height="35.75" viewBox="0 0 35.75 35.75">
  <path id="패스_368" data-name="패스 368" d="M1,5.875A4.875,4.875,0,0,1,5.875,1h26A4.875,4.875,0,0,1,36.75,5.875v26a4.875,4.875,0,0,1-4.875,4.875h-26A4.875,4.875,0,0,1,1,31.875ZM5.875,4.25A1.625,1.625,0,0,0,4.25,5.875v26A1.625,1.625,0,0,0,5.875,33.5h26A1.625,1.625,0,0,0,33.5,31.875v-26A1.625,1.625,0,0,0,31.875,4.25Z" transform="translate(-1 -1)" fill="#fff" fill-rule="evenodd"/>
  <path id="패스_369" data-name="패스 369" d="M1,5.875A4.875,4.875,0,0,1,5.875,1h26A4.875,4.875,0,0,1,36.75,5.875V20.5H1ZM5.875,4.25A1.625,1.625,0,0,0,4.25,5.875V17.25H33.5V5.875A1.625,1.625,0,0,0,31.875,4.25Z" transform="translate(-1 -1)" fill="#fff" fill-rule="evenodd"/>
  <path id="패스_370" data-name="패스 370" d="M5.875,36.75A4.875,4.875,0,0,1,1,31.875v-26A4.875,4.875,0,0,1,5.875,1H20.5V36.75ZM4.25,31.875A1.625,1.625,0,0,0,5.875,33.5H17.25V4.25H5.875A1.625,1.625,0,0,0,4.25,5.875Z" transform="translate(-1 -1)" fill="#fff" fill-rule="evenodd"/>
</svg>
