<svg id="그룹_9209" data-name="그룹 9209" xmlns="http://www.w3.org/2000/svg" width="24.111" height="34.444" viewBox="0 0 24.111 34.444">
  <g id="ic-mobile-battery-full">
    <rect id="사각형_326" data-name="사각형 326" width="23" height="23" transform="translate(0.049 4.689)" fill="none"/>
    <g id="ic-mobile-battery-full-2" data-name="ic-mobile-battery-full">
      <path id="패스_721" data-name="패스 721" d="M23.944,5.444A3.444,3.444,0,0,0,20.5,2H13.611a3.444,3.444,0,0,0-3.444,3.444A5.167,5.167,0,0,0,5,10.611V31.278a5.167,5.167,0,0,0,5.167,5.167H23.944a5.167,5.167,0,0,0,5.167-5.167V10.611a5.167,5.167,0,0,0-5.167-5.167ZM10.167,8.889h1.722a1.722,1.722,0,0,0,1.722-1.722V5.444H20.5V7.167a1.722,1.722,0,0,0,1.722,1.722h1.722a1.722,1.722,0,0,1,1.722,1.722v4.306H8.444V10.611A1.722,1.722,0,0,1,10.167,8.889Zm5.167,9.472V33H13.611V18.361Zm3.444,0H20.5V33H18.778ZM8.444,31.278V18.361h1.722V33A1.722,1.722,0,0,1,8.444,31.278ZM23.944,33V18.361h1.722V31.278A1.722,1.722,0,0,1,23.944,33Z" transform="translate(-5 -2)" fill="#828282"/>
    </g>
  </g>
</svg>
